<svg xmlns="http://www.w3.org/2000/svg" version="1.1" xmlns:xlink="http://www.w3.org/1999/xlink" xmlns:svgjs="http://svgjs.dev/svgjs" width="1440" height="560" preserveAspectRatio="none" viewBox="0 0 1440 560"><g mask="url(&quot;#SvgjsMask2265&quot;)" fill="none"><rect width="1440" height="560" x="0" y="0" fill="rgba(255, 255, 255, 1)"></rect><path d="M-139.64 322.78 a172.75 172.75 0 1 0 345.5 0 a172.75 172.75 0 1 0 -345.5 0z" fill="rgba(26, 58, 58, 0.49)" class="triangle-float2"></path><path d="M1301.766,296.438C1349.456,295.698,1393.61,269.787,1416.291,227.829C1437.96,187.745,1428.282,141.204,1407.642,100.581C1384.278,54.595,1353.334,3.595,1301.766,2.42C1249.027,1.218,1211.802,48.898,1187.186,95.555C1164.501,138.552,1156.827,189.255,1180.913,231.483C1205.199,274.062,1252.754,297.199,1301.766,296.438" fill="rgba(26, 58, 58, 0.49)" class="triangle-float1"></path><path d="M1291.249962544578 495.52026608883017L1189.333399883208 369.663792654478 1063.476926448856 471.580355315848 1165.3934891102258 597.4368287502002z" fill="rgba(26, 58, 58, 0.49)" class="triangle-float2"></path><path d="M981.333,462.484C1013.304,463.252,1049.095,455.644,1063.568,427.126C1077.298,400.072,1057.798,370.444,1040.795,345.317C1026.478,324.159,1006.87,306.298,981.333,305.598C954.623,304.865,930.385,319.414,915.939,341.892C900.085,366.562,891.692,397.552,905.671,423.331C920.18,450.086,950.906,461.753,981.333,462.484" fill="rgba(26, 58, 58, 0.49)" class="triangle-float1"></path><path d="M231.601,202.635C247.269,202.532,257.736,188.245,265.225,174.483C272.296,161.489,276.411,146.274,269.34,133.281C261.999,119.791,246.95,113.231,231.601,112.699C215.13,112.128,197.015,116.074,189.042,130.498C181.235,144.623,189.003,161.028,197.204,174.928C205.222,188.519,215.821,202.738,231.601,202.635" fill="rgba(26, 58, 58, 0.49)" class="triangle-float1"></path><path d="M741.649,387.524C801.529,389.555,857.75,355.087,886.075,302.291C913.034,252.042,904.812,190.369,872.71,143.239C844.278,101.497,792.12,92.118,741.649,90.252C686.321,88.207,622.277,86.109,592.659,132.887C561.799,181.626,584.12,243.246,613.253,293.036C642.016,342.194,684.728,385.593,741.649,387.524" fill="rgba(26, 58, 58, 0.49)" class="triangle-float3"></path></g><defs><mask id="SvgjsMask2265"><rect width="1440" height="560" fill="#ffffff"></rect></mask><style>
                @keyframes float1 {
                    0%{transform: translate(0, 0)}
                    50%{transform: translate(-10px, 0)}
                    100%{transform: translate(0, 0)}
                }

                .triangle-float1 {
                    animation: float1 5s infinite;
                }

                @keyframes float2 {
                    0%{transform: translate(0, 0)}
                    50%{transform: translate(-5px, -5px)}
                    100%{transform: translate(0, 0)}
                }

                .triangle-float2 {
                    animation: float2 4s infinite;
                }

                @keyframes float3 {
                    0%{transform: translate(0, 0)}
                    50%{transform: translate(0, -10px)}
                    100%{transform: translate(0, 0)}
                }

                .triangle-float3 {
                    animation: float3 6s infinite;
                }
            </style></defs></svg>