<svg xmlns="http://www.w3.org/2000/svg" version="1.1" xmlns:xlink="http://www.w3.org/1999/xlink" xmlns:svgjs="http://svgjs.dev/svgjs" width="1440" height="560" preserveAspectRatio="none" viewBox="0 0 1440 560"><g mask="url(&quot;#SvgjsMask1005&quot;)" fill="none"><rect width="1440" height="560" x="0" y="0" fill="rgba(255, 255, 255, 1)"></rect><path d="M115.19 0C136.93 7.08 127.99 45.58 140 45.58C151.79 45.58 141.58 6.91 162.79 0C211.58 -15.88 221.39 0 280 0C350 0 350 0 420 0C490 0 490 0 560 0C630 0 630 0 700 0C770 0 770 0 840 0C910 0 910 0 980 0C1050 0 1050 0 1120 0C1190 0 1190 0 1260 0C1330 0 1330 0 1400 0C1435 0 1441.39 -14.95 1470 0C1511.39 21.64 1518.91 31.01 1540 73.18C1553.91 101.01 1540 106.59 1540 140C1540 210 1540 210 1540 280C1540 350 1540 350 1540 420C1540 470.91 1565.52 489.01 1540 521.82C1511.08 559.01 1486.25 544.96 1431.11 560C1416.25 564.05 1415.55 560 1400 560C1330 560 1330 560 1260 560C1190 560 1190 560 1120 560C1050 560 1050 560 980 560C910 560 910 560 840 560C828.94 560 817.89 568.1 817.89 560C817.89 533.1 830.73 525.47 840 490C849.03 455.47 854.48 452.19 854.48 420C854.48 411.94 845.87 416.21 840 409.5C784.67 346.21 786.98 343.91 732.08 280C716.98 262.42 719.11 259.38 700 246.52C633.07 201.45 610.68 154.57 560 164.14C522.02 171.31 522.67 224.66 522.67 280C522.67 310.59 537.05 311.74 560 336C603.26 381.74 634.51 366.8 655.09 420C677.84 478.8 676.06 516.74 646.67 560C628.51 586.74 603.34 560 560 560C520.43 560 507.68 581.45 480.87 560C437.68 525.45 456.44 448 420 448C377.73 448 377.55 516.72 323.45 560C307.55 572.72 301.73 560 280 560C210 560 210 560 140 560C70 560 35 595 0 560C-35 525 0 490 0 420C0 350 0 350 0 280C0 210 0 210 0 140C0 70 -31.6 38.4 0 0C26 -31.6 66.93 -15.71 115.19 0" stroke="rgba(26, 58, 58, 0.58)" stroke-width="2"></path><path d="M420 65.88C368.87 65.88 319.2 111.72 319.2 140C319.2 163.78 369.43 170 420 170C474.62 170 529.57 164.05 529.57 140C529.57 111.99 474.06 65.88 420 65.88" stroke="rgba(26, 58, 58, 0.58)" stroke-width="2"></path><path d="M840 57.44C799.7 69.73 784.48 101.65 784.48 140C784.48 169.77 805.95 178.09 840 193.67C903.71 222.81 918.83 243.75 980 229.44C1033.55 216.91 1069.44 180.29 1069.44 140C1069.44 105.76 1029.45 98.17 980 80.37C914.73 56.89 897.46 39.92 840 57.44" stroke="rgba(26, 58, 58, 0.58)" stroke-width="2"></path><path d="M1260 82.17C1215.84 82.17 1176.88 113.54 1176.88 140C1176.88 164.62 1216.74 184.33 1260 184.33C1321.63 184.33 1386.67 165.07 1386.67 140C1386.67 113.99 1320.73 82.17 1260 82.17" stroke="rgba(26, 58, 58, 0.58)" stroke-width="2"></path><path d="M140 213.82C109.03 231.55 101.28 247.92 101.28 280C101.28 307.38 111.61 326.25 140 332.75C200.97 346.71 217.33 340.22 280 320.92C302.98 313.84 311.29 303.27 311.29 280C311.29 231.66 316.42 191.76 280 177.69C230.78 158.67 198.39 180.39 140 213.82" stroke="rgba(26, 58, 58, 0.58)" stroke-width="2"></path><path d="M1120 376.79C1081.79 382.96 1051.37 396.99 1051.37 420C1051.37 444.33 1080.85 467.09 1120 471.47C1185.17 478.76 1193.36 464.04 1260 443.33C1276.17 438.3 1285.63 432.84 1285.63 420C1285.63 404.32 1279.2 391.31 1260 386.3C1196.38 369.7 1186.11 366.11 1120 376.79" stroke="rgba(26, 58, 58, 0.58)" stroke-width="2"></path><path d="M96.92 140C96.92 134.15 119.05 126.98 140 126.98C153.31 126.98 165.45 134.08 165.45 140C165.45 145.68 153.1 150.18 140 150.18C118.84 150.18 96.92 145.75 96.92 140" stroke="rgba(26, 58, 58, 0.58)" stroke-width="2"></path><path d="M70.89 0C70.89 37.42 19.16 114.29 0 114.29C-16.28 114.29 -21.88 35.27 0 0C13.57 -21.88 70.89 -19.72 70.89 0" stroke="rgba(26, 58, 58, 0.58)" stroke-width="2"></path><path d="M280 101.23C236.35 101.23 203.49 31.58 203.49 0C203.49 -19.04 241.75 0 280 0C338.75 0 397.5 -21.82 397.5 0C397.5 28.8 333.35 101.23 280 101.23" stroke="rgba(26, 58, 58, 0.58)" stroke-width="2"></path><path d="M653.33 140C624.74 78.59 605.63 45.11 620.67 0C628.97 -24.89 660.34 0 700 0C745.77 0 787.07 -25.95 791.54 0C799.14 44.05 760.76 71.83 724.14 140C714.99 157.04 714.54 170.43 700 170.43C679.14 170.43 664.41 163.8 653.33 140" stroke="rgba(26, 58, 58, 0.58)" stroke-width="2"></path><path d="M980 15.56C952.33 15.56 924 3.96 924 0C924 -3.82 952 0 980 0C1001 0 1022 -3.76 1022 0C1022 4.02 1001.33 15.56 980 15.56" stroke="rgba(26, 58, 58, 0.58)" stroke-width="2"></path><path d="M1260 6.09C1250.87 6.09 1242.5 1.57 1242.5 0C1242.5 -1.48 1251.25 0 1260 0C1295 0 1330 -1.52 1330 0C1330 1.53 1294.62 6.09 1260 6.09" stroke="rgba(26, 58, 58, 0.58)" stroke-width="2"></path><path d="M0 164.23C17.08 164.23 28.51 224.36 64.04 280C98.51 333.99 88.4 360.84 140 383.48C196.38 408.22 214.02 363.39 280 374.77C319.88 381.65 351.71 392.44 351.71 420C351.71 454.79 325.86 482.4 280 499.46C220.01 521.77 209.93 501.11 140 498.75C69.93 496.38 46.7 516.27 0 490C-23.3 476.89 0 455 0 420C0 350 0 350 0 280C0 222.12 -14.94 164.23 0 164.23" stroke="rgba(26, 58, 58, 0.58)" stroke-width="2"></path><path d="M352.47 280C352.47 243.18 386.72 211.67 420 211.67C452.38 211.67 483.78 243.35 483.78 280C483.78 324.57 452.52 374.1 420 374.1C386.87 374.1 352.47 324.39 352.47 280" stroke="rgba(26, 58, 58, 0.58)" stroke-width="2"></path><path d="M805 280C805 264.23 820.43 252 840 252C872.93 252 910 263.2 910 280C910 298.2 871.44 322 840 322C818.94 322 805 299.23 805 280" stroke="rgba(26, 58, 58, 0.58)" stroke-width="2"></path><path d="M1019.07 280C1019.07 237.09 1062.01 188.06 1120 179.07C1182.47 169.39 1187.11 220.6 1260 242.67C1327.11 262.99 1337.78 283.21 1400 263.85C1477.78 239.65 1498.9 150.82 1540 155.56C1568.9 158.89 1540 217.78 1540 280C1540 350 1540 350 1540 420C1540 448.18 1559.72 463.85 1540 476.36C1489.72 508.27 1462.76 480.49 1400 508.85C1370.22 522.31 1384.18 549.31 1354.92 560C1314.18 574.88 1307.46 560 1260 560C1190 560 1190 560 1120 560C1050 560 1050 560 980 560C934.07 560 888.99 585.05 888.13 560C886.58 515.05 932.3 490.35 975.17 420C978.24 414.96 978.05 409.23 980 409.23C981.84 409.23 978.49 416.54 982.75 420C1048.49 473.4 1044.69 504.41 1120 522.94C1183.32 538.52 1196.88 518.44 1260 488.21C1304.34 466.97 1334.93 457.53 1334.93 420C1334.93 374.16 1310.33 341.72 1260 321.48C1202.86 298.51 1186.44 345.02 1120 333.58C1065.97 324.28 1019.07 314.35 1019.07 280" stroke="rgba(26, 58, 58, 0.58)" stroke-width="2"></path><path d="M510.32 420C510.74 397.24 536.75 394.33 560 394.33C576.12 394.33 588.7 402.27 589.06 420C590.37 485.1 577.53 491.6 563.33 560C563 561.6 561.66 560 560 560C558.48 560 557.46 561.41 556.96 560C532.62 491.41 509.22 480.07 510.32 420" stroke="rgba(26, 58, 58, 0.58)" stroke-width="2"></path><path d="M26.58 0C26.58 14.03 7.18 42.86 0 42.86C-6.11 42.86 -8.2 13.23 0 0C5.09 -8.2 26.58 -7.4 26.58 0" stroke="rgba(26, 58, 58, 0.58)" stroke-width="2"></path><path d="M280 47.38C259.57 47.38 244.19 14.78 244.19 0C244.19 -8.91 262.1 0 280 0C307.5 0 335 -10.21 335 0C335 13.48 304.97 47.38 280 47.38" stroke="rgba(26, 58, 58, 0.58)" stroke-width="2"></path><path d="M0 231.54C7.15 231.54 26.81 254.77 26.81 280C26.81 315 6.92 352 0 352C-6.49 352 0 316 0 280C0 255.77 -6.26 231.54 0 231.54" stroke="rgba(26, 58, 58, 0.58)" stroke-width="2"></path><path d="M393.65 280C393.65 265.63 407.01 253.33 420 253.33C432.63 253.33 444.89 265.7 444.89 280C444.89 297.39 432.69 316.72 420 316.72C407.07 316.72 393.65 297.32 393.65 280" stroke="rgba(26, 58, 58, 0.58)" stroke-width="2"></path><path d="M1100.47 280C1100.47 271.7 1108 260.47 1120 260.47C1145.77 260.47 1176 272.37 1176 280C1176 287.32 1147.2 290.37 1120 290.37C1109.44 290.37 1100.47 286.65 1100.47 280" stroke="rgba(26, 58, 58, 0.58)" stroke-width="2"></path><path d="M1506.21 280C1522.1 265.25 1529.62 252.78 1540 252.78C1546.51 252.78 1540 266.39 1540 280C1540 350 1540 350 1540 420C1540 425.46 1545.05 430.13 1540 430.91C1475.05 440.9 1465.44 446.12 1400 441.54C1387.56 440.67 1384.23 431.69 1384.23 420C1384.23 402.25 1386.87 397.74 1400 382.67C1447.86 327.74 1452.1 330.2 1506.21 280" stroke="rgba(26, 58, 58, 0.58)" stroke-width="2"></path><path d="M942.81 560C942.81 541.15 954.43 501.95 980 501.95C1022.61 501.95 1079.17 544.42 1079.17 560C1079.17 573.45 1029.59 560 980 560C961.4 560 942.81 570.17 942.81 560" stroke="rgba(26, 58, 58, 0.58)" stroke-width="2"></path><path d="M1164.55 560C1164.55 553.14 1214.81 533.08 1260 533.08C1280.33 533.08 1295.59 552.51 1295.59 560C1295.59 565.97 1277.8 560 1260 560C1212.28 560 1164.55 566.6 1164.55 560" stroke="rgba(26, 58, 58, 0.58)" stroke-width="2"></path></g><defs><mask id="SvgjsMask1005"><rect width="1440" height="560" fill="#ffffff"></rect></mask></defs></svg>